# xmcd CD database file
#
# Track frame offsets:
#	150
#	15149
#	31321
#	46867
#	59663
#	75088
#	91272
#	107461
#	122105
#	135128
#	148731
#	163655
#	178331
#
# Disc length: 2565 seconds
#
# Revision: 0
# Processed by: cddbd v1.5.2PL0 Copyright (c) Steve Scherf et al.
# Submitted via: CDex 1.70beta2
#
DISCID=980a030d
DTITLE=Alexander Rier - Ich wart auf Dich
DYEAR=2010
DGENRE=Schlager
TTITLE0=103 kleine Sünden
TTITLE1=Für alle zeit (Mit Dir Leben)
TTITLE2=Schuld ist nur die Sehnsucht
TTITLE3=Bitte küss mich nochmal
TTITLE4=Nie mehr allein sein
TTITLE5=Schliess deine Augen
TTITLE6=Ich wart auf Dich
TTITLE7=Das grösste Wunder der Welt
TTITLE8=Wann kommst Du
TTITLE9=Ein zärtliches Feuer
TTITLE10=In meinen Träumen gibt es nur eine
TTITLE11=Der Gedanke dass du gehst
TTITLE12=Sag ja zu mir und roten Rosen
EXTD=YEAR: 2010
EXTT0=
EXTT1=
EXTT2=
EXTT3=
EXTT4=
EXTT5=
EXTT6=
EXTT7=
EXTT8=
EXTT9=
EXTT10=
EXTT11=
EXTT12=
PLAYORDER=
